<svg width="166" height="40" viewBox="0 0 166 40" fill="none" xmlns="http://www.w3.org/2000/svg">
<g clip-path="url(#clip0_2_1050)">
<path d="M50.0269 28.608H61.6873V25.0958H54.1712V11.8666H50.0269V28.608Z" fill="#2F234F"/>
<path d="M68.5957 26.2665C66.9332 26.2665 66.0669 24.8148 66.0669 22.6372C66.0669 20.4597 66.9332 18.9846 68.5957 18.9846C70.2581 18.9846 71.1479 20.4597 71.1479 22.6372C71.1479 24.8148 70.2581 26.2665 68.5957 26.2665ZM68.6191 28.9826C72.4825 28.9826 75.0113 26.2431 75.0113 22.6372C75.0113 19.0314 72.4825 16.2919 68.6191 16.2919C64.7791 16.2919 62.2035 19.0314 62.2035 22.6372C62.2035 26.2431 64.7791 28.9826 68.6191 28.9826Z" fill="#2F234F"/>
<path d="M81.6985 32.7523C83.478 32.7523 85.0468 32.3543 86.1005 31.4177C87.0605 30.5514 87.6927 29.2401 87.6927 27.4372V16.6197H84.04V17.9075H83.9931C83.2907 16.9006 82.2136 16.2684 80.6214 16.2684C77.6478 16.2684 75.5873 18.7504 75.5873 22.2626C75.5873 25.9387 78.0926 27.9523 80.7853 27.9523C82.237 27.9523 83.1502 27.367 83.8526 26.5709H83.9463V27.765C83.9463 29.2167 83.2673 30.0597 81.6517 30.0597C80.3873 30.0597 79.7551 29.5211 79.5444 28.8889H75.8448C76.2195 31.3943 78.397 32.7523 81.6985 32.7523ZM81.6751 25.1192C80.2468 25.1192 79.3102 23.9484 79.3102 22.1455C79.3102 20.3192 80.2468 19.1484 81.6751 19.1484C83.2673 19.1484 84.1102 20.5065 84.1102 22.1221C84.1102 23.8079 83.3375 25.1192 81.6751 25.1192Z" fill="#2F234F"/>
<path d="M95.2033 26.2665C93.5409 26.2665 92.6746 24.8148 92.6746 22.6372C92.6746 20.4597 93.5409 18.9846 95.2033 18.9846C96.8658 18.9846 97.7552 20.4597 97.7552 22.6372C97.7552 24.8148 96.8658 26.2665 95.2033 26.2665ZM95.2268 28.9826C99.0898 28.9826 101.619 26.2431 101.619 22.6372C101.619 19.0314 99.0898 16.2919 95.2268 16.2919C91.3868 16.2919 88.8112 19.0314 88.8112 22.6372C88.8112 26.2431 91.3868 28.9826 95.2268 28.9826Z" fill="#2F234F"/>
<path d="M102.734 28.608H106.55V16.6197H102.734V28.608ZM102.734 14.9573H106.55V11.8666H102.734V14.9573Z" fill="#2F234F"/>
<path d="M108.206 32.565H112.022V27.367H112.069C112.818 28.3738 113.919 28.9826 115.464 28.9826C118.602 28.9826 120.686 26.5006 120.686 22.6138C120.686 19.0079 118.742 16.2684 115.558 16.2684C113.919 16.2684 112.748 16.9943 111.929 18.0714H111.858V16.6197H108.206V32.565ZM114.481 26.0323C112.842 26.0323 111.905 24.6977 111.905 22.7543C111.905 20.8109 112.748 19.3358 114.411 19.3358C116.05 19.3358 116.822 20.6938 116.822 22.7543C116.822 24.7914 115.933 26.0323 114.481 26.0323Z" fill="#2F234F"/>
<path d="M126.899 28.9826C130.037 28.9826 132.355 27.6245 132.355 25.0021C132.355 21.9348 129.873 21.3962 127.766 21.045C126.244 20.764 124.886 20.647 124.886 19.804C124.886 19.0548 125.612 18.7036 126.548 18.7036C127.602 18.7036 128.328 19.0314 128.468 20.1084H131.98C131.793 17.7436 129.967 16.2684 126.572 16.2684C123.738 16.2684 121.397 17.5797 121.397 20.1084C121.397 22.9182 123.621 23.4801 125.705 23.8314C127.298 24.1123 128.749 24.2294 128.749 25.3065C128.749 26.0792 128.023 26.5006 126.876 26.5006C125.612 26.5006 124.816 25.9153 124.675 24.7211H121.069C121.186 27.367 123.387 28.9826 126.899 28.9826Z" fill="#2F234F"/>
<path d="M137.539 28.9593C139.202 28.9593 140.256 28.3037 141.122 27.1329H141.192V28.608H144.845V16.6198H141.028V23.3163C141.028 24.7446 140.232 25.728 138.921 25.728C137.703 25.728 137.118 25.0022 137.118 23.691V16.6198H133.325V24.4871C133.325 27.1563 134.777 28.9593 137.539 28.9593Z" fill="#2F234F"/>
<path d="M146.505 28.6079H150.322V21.8879C150.322 20.4597 151.024 19.4528 152.219 19.4528C153.366 19.4528 153.904 20.2021 153.904 21.4899V28.6079H157.721V21.8879C157.721 20.4597 158.4 19.4528 159.618 19.4528C160.765 19.4528 161.303 20.2021 161.303 21.4899V28.6079H165.12V20.8109C165.12 18.1182 163.762 16.2684 161.046 16.2684C159.5 16.2684 158.213 16.924 157.276 18.3757H157.229C156.62 17.0879 155.426 16.2684 153.858 16.2684C152.125 16.2684 150.978 17.0879 150.228 18.3289H150.158V16.6197H146.505V28.6079Z" fill="#2F234F"/>
<path fill-rule="evenodd" clip-rule="evenodd" d="M19.6112 39.3397C30.3875 39.3397 39.1233 30.6038 39.1233 19.8275C39.1233 9.05121 30.3875 0.315308 19.6112 0.315308C8.83489 0.315308 0.098999 9.05121 0.098999 19.8275C0.098999 30.6038 8.83489 39.3397 19.6112 39.3397ZM22.6229 15.391C24.2861 13.7277 24.2861 11.031 22.6229 9.36766C20.9595 7.70436 18.2629 7.70436 16.5995 9.36766C14.9363 11.031 14.9363 13.7277 16.5995 15.391L19.6112 18.4026L22.6229 15.391ZM24.0477 22.8392C25.7111 24.5025 28.4077 24.5025 30.0711 22.8392C31.7343 21.1759 31.7343 18.4792 30.0711 16.8159C28.4077 15.1526 25.7111 15.1526 24.0477 16.8159L21.0361 19.8276L24.0477 22.8392ZM22.6229 30.2874C24.2861 28.624 24.2861 25.9274 22.6229 24.264L19.6112 21.2524L16.5995 24.264C14.9363 25.9274 14.9363 28.624 16.5995 30.2874C18.2629 31.9507 20.9595 31.9507 22.6229 30.2874ZM9.15132 22.8392C7.48806 21.1759 7.48806 18.4792 9.15132 16.8159C10.8147 15.1526 13.5113 15.1526 15.1747 16.8159L18.1863 19.8276L15.1747 22.8392C13.5113 24.5025 10.8147 24.5025 9.15132 22.8392Z" fill="#5B86E5"/>
</g>
<defs>
<clipPath id="clip0_2_1050">
<rect width="165.854" height="40" fill="white"/>
</clipPath>
</defs>
</svg>
